<svg enable-background="new 0 0 400 155.78" viewBox="0 0 400 155.78" xmlns="http://www.w3.org/2000/svg"><path d="m29.92 62.74c-19.65.82-26.78 3.66-26.78 3.66s1.09 82.35 1.5 87.38c0 0 13.56-1.53 16.75-3.39s1.15-34.05 1.15-34.05 22.98.62 28.24-13.8c5.26-14.41-1.2-40.62-20.86-39.8zm-8.46 33.73-.19-14.23s11.71-3.61 13 4.57c1.61 10.19-12.81 9.66-12.81 9.66z"/><path d="m62.09 58.13v53.44s-.17 27.93 21.54 28.49 26.63-16.72 26.62-28.1 0-61.78 0-61.78-15.29 2.76-17.67 3.52-.53 22.02-.53 36.84 1.04 30.48-4.79 31.45c-5.82.96-8.77-1.09-8.77-18.91s.66-48.25.66-48.25z"/><path d="m147.43 88.71s13.53-3.49 13.65-19.87c.12-16.39-12.6-24.1-26.58-22.64-13.98 1.45-17.79 2.72-17.79 2.72v86.3s16.96-1.77 17.98-3.33 0-31.82 0-31.82 16.88 29.49 18.17 29.86 18.21-2.37 18.21-2.37zm-15.18-13.77v-13.4s10.11-1.18 10.36 7.3c.26 8.48-10.36 6.1-10.36 6.1z"/><path d="m198.01 37.48-16.13 2.16-5.69 87.05s15.31-1.55 15.6-4.61 2.55-25.1 2.55-25.1l7.55-1.68 7.7 26.21 18.83-4.45zm1.29 44.36c-.15 1.8-7.24 1.75-7.24 1.75l1.43-25.45c0-.01 5.96 21.9 5.81 23.7z"/><path d="m231.43 31.78v86.18s16.29-3.89 17.46-6.09 0-26.54 0-26.54l6.4-10.08s16.9 34.29 18.03 35.3 18.63-2.09 18.63-2.09l-25.99-47.41s18.23-34.78 18.51-36.43c.28-1.66-13.98 1.64-13.98 1.64l-6.67 1.13-14.66 27.16v-26.32z"/><path d="m321.5 18.11c-.46-1.82-17.43.69-17.35 2.7s-3.5 87.15-3.5 87.15 13.98-1.91 14.62-3.01.91-29.82.91-29.82l8.21-1.32 8.51 29.09s15.12-2.62 15.59-3.5-26.52-79.47-26.99-81.29zm-6.22 42.82-.14-25.52 6.27 24.27z"/><path d="m351.05 12.86v50.25s4.01 31.17 22.35 32.22 23.15-18.85 23.21-34.39 0-55.44 0-55.44-13.35 2.05-15.15 2.3c-1.79.25-1.01 6.72-1.01 23.77s2.27 40.55-3.06 42.24c-5.33 1.7-9.08-7.4-9.6-24.62s0-39.82 0-39.82z"/><path d="m209 20v9.99s-30.51 6.29-34.35 6.8c-3.85.51-1.89-12.5-1.89-12.5z"/><path d="m108.57 33.92-.07 12.01s-46.4 8.31-47.66 8.17c-1.26-.13-.27-13.05-.27-13.05z"/></svg>